<svg id="visual" viewBox="0 0 960 540" width="960" height="540" xmlns="http://www.w3.org/2000/svg" xmlns:xlink="http://www.w3.org/1999/xlink" version="1.1"><path d="M0 55L14.5 56.8C29 58.7 58 62.3 87.2 60.5C116.3 58.7 145.7 51.3 174.8 45C204 38.7 233 33.3 262 36C291 38.7 320 49.3 349 59.2C378 69 407 78 436.2 80.8C465.3 83.7 494.7 80.3 523.8 80.3C553 80.3 582 83.7 611 76.3C640 69 669 51 698 47.5C727 44 756 55 785.2 54.2C814.3 53.3 843.7 40.7 872.8 35.2C902 29.7 931 31.3 945.5 32.2L960 33L960 0L945.5 0C931 0 902 0 872.8 0C843.7 0 814.3 0 785.2 0C756 0 727 0 698 0C669 0 640 0 611 0C582 0 553 0 523.8 0C494.7 0 465.3 0 436.2 0C407 0 378 0 349 0C320 0 291 0 262 0C233 0 204 0 174.8 0C145.7 0 116.3 0 87.2 0C58 0 29 0 14.5 0L0 0Z" fill="#68a691"></path><path d="M0 201L14.5 202.8C29 204.7 58 208.3 87.2 207.3C116.3 206.3 145.7 200.7 174.8 187.2C204 173.7 233 152.3 262 151.5C291 150.7 320 170.3 349 191C378 211.7 407 233.3 436.2 240.5C465.3 247.7 494.7 240.3 523.8 230.3C553 220.3 582 207.7 611 184.3C640 161 669 127 698 128.8C727 130.7 756 168.3 785.2 164.7C814.3 161 843.7 116 872.8 106.2C902 96.3 931 121.7 945.5 134.3L960 147L960 31L945.5 30.2C931 29.3 902 27.7 872.8 33.2C843.7 38.7 814.3 51.3 785.2 52.2C756 53 727 42 698 45.5C669 49 640 67 611 74.3C582 81.7 553 78.3 523.8 78.3C494.7 78.3 465.3 81.7 436.2 78.8C407 76 378 67 349 57.2C320 47.3 291 36.7 262 34C233 31.3 204 36.7 174.8 43C145.7 49.3 116.3 56.7 87.2 58.5C58 60.3 29 56.7 14.5 54.8L0 53Z" fill="#7eb096"></path><path d="M0 255L14.5 266.7C29 278.3 58 301.7 87.2 309.7C116.3 317.7 145.7 310.3 174.8 293.2C204 276 233 249 262 238.3C291 227.7 320 233.3 349 251.3C378 269.3 407 299.7 436.2 314C465.3 328.3 494.7 326.7 523.8 324C553 321.3 582 317.7 611 308.7C640 299.7 669 285.3 698 274.5C727 263.7 756 256.3 785.2 251C814.3 245.7 843.7 242.3 872.8 235.2C902 228 931 217 945.5 211.5L960 206L960 145L945.5 132.3C931 119.7 902 94.3 872.8 104.2C843.7 114 814.3 159 785.2 162.7C756 166.3 727 128.7 698 126.8C669 125 640 159 611 182.3C582 205.7 553 218.3 523.8 228.3C494.7 238.3 465.3 245.7 436.2 238.5C407 231.3 378 209.7 349 189C320 168.3 291 148.7 262 149.5C233 150.3 204 171.7 174.8 185.2C145.7 198.7 116.3 204.3 87.2 205.3C58 206.3 29 202.7 14.5 200.8L0 199Z" fill="#93ba9d"></path><path d="M0 314L14.5 318.5C29 323 58 332 87.2 341C116.3 350 145.7 359 174.8 344.7C204 330.3 233 292.7 262 279.2C291 265.7 320 276.3 349 295.2C378 314 407 341 436.2 351C465.3 361 494.7 354 523.8 355C553 356 582 365 611 359.5C640 354 669 334 698 317.7C727 301.3 756 288.7 785.2 284.2C814.3 279.7 843.7 283.3 872.8 281.7C902 280 931 273 945.5 269.5L960 266L960 204L945.5 209.5C931 215 902 226 872.8 233.2C843.7 240.3 814.3 243.7 785.2 249C756 254.3 727 261.7 698 272.5C669 283.3 640 297.7 611 306.7C582 315.7 553 319.3 523.8 322C494.7 324.7 465.3 326.3 436.2 312C407 297.7 378 267.3 349 249.3C320 231.3 291 225.7 262 236.3C233 247 204 274 174.8 291.2C145.7 308.3 116.3 315.7 87.2 307.7C58 299.7 29 276.3 14.5 264.7L0 253Z" fill="#a7c4a5"></path><path d="M0 341L14.5 350C29 359 58 377 87.2 383.3C116.3 389.7 145.7 384.3 174.8 369C204 353.7 233 328.3 262 323C291 317.7 320 332.3 349 352.2C378 372 407 397 436.2 405C465.3 413 494.7 404 523.8 399.5C553 395 582 395 611 387C640 379 669 363 698 353.2C727 343.3 756 339.7 785.2 338.7C814.3 337.7 843.7 339.3 872.8 335.7C902 332 931 323 945.5 318.5L960 314L960 264L945.5 267.5C931 271 902 278 872.8 279.7C843.7 281.3 814.3 277.7 785.2 282.2C756 286.7 727 299.3 698 315.7C669 332 640 352 611 357.5C582 363 553 354 523.8 353C494.7 352 465.3 359 436.2 349C407 339 378 312 349 293.2C320 274.3 291 263.7 262 277.2C233 290.7 204 328.3 174.8 342.7C145.7 357 116.3 348 87.2 339C58 330 29 321 14.5 316.5L0 312Z" fill="#bbceaf"></path><path d="M0 428L14.5 430.7C29 433.3 58 438.7 87.2 435C116.3 431.3 145.7 418.7 174.8 415C204 411.3 233 416.7 262 421.2C291 425.7 320 429.3 349 436.5C378 443.7 407 454.3 436.2 457C465.3 459.7 494.7 454.3 523.8 453.5C553 452.7 582 456.3 611 461.8C640 467.3 669 474.7 698 472.8C727 471 756 460 785.2 444.7C814.3 429.3 843.7 409.7 872.8 404.3C902 399 931 408 945.5 412.5L960 417L960 312L945.5 316.5C931 321 902 330 872.8 333.7C843.7 337.3 814.3 335.7 785.2 336.7C756 337.7 727 341.3 698 351.2C669 361 640 377 611 385C582 393 553 393 523.8 397.5C494.7 402 465.3 411 436.2 403C407 395 378 370 349 350.2C320 330.3 291 315.7 262 321C233 326.3 204 351.7 174.8 367C145.7 382.3 116.3 387.7 87.2 381.3C58 375 29 357 14.5 348L0 339Z" fill="#ced8ba"></path><path d="M0 449L14.5 450C29 451 58 453 87.2 450.3C116.3 447.7 145.7 440.3 174.8 443C204 445.7 233 458.3 262 462.8C291 467.3 320 463.7 349 465.5C378 467.3 407 474.7 436.2 478.3C465.3 482 494.7 482 523.8 482.8C553 483.7 582 485.3 611 488C640 490.7 669 494.3 698 490.7C727 487 756 476 785.2 466C814.3 456 843.7 447 872.8 447C902 447 931 456 945.5 460.5L960 465L960 415L945.5 410.5C931 406 902 397 872.8 402.3C843.7 407.7 814.3 427.3 785.2 442.7C756 458 727 469 698 470.8C669 472.7 640 465.3 611 459.8C582 454.3 553 450.7 523.8 451.5C494.7 452.3 465.3 457.7 436.2 455C407 452.3 378 441.7 349 434.5C320 427.3 291 423.7 262 419.2C233 414.7 204 409.3 174.8 413C145.7 416.7 116.3 429.3 87.2 433C58 436.7 29 431.3 14.5 428.7L0 426Z" fill="#dfe2c7"></path><path d="M0 498L14.5 501.5C29 505 58 512 87.2 512.8C116.3 513.7 145.7 508.3 174.8 508.3C204 508.3 233 513.7 262 515.5C291 517.3 320 515.7 349 512.2C378 508.7 407 503.3 436.2 503.3C465.3 503.3 494.7 508.7 523.8 512.2C553 515.7 582 517.3 611 517.3C640 517.3 669 515.7 698 513C727 510.3 756 506.7 785.2 504C814.3 501.3 843.7 499.7 872.8 499.7C902 499.7 931 501.3 945.5 502.2L960 503L960 463L945.5 458.5C931 454 902 445 872.8 445C843.7 445 814.3 454 785.2 464C756 474 727 485 698 488.7C669 492.3 640 488.7 611 486C582 483.3 553 481.7 523.8 480.8C494.7 480 465.3 480 436.2 476.3C407 472.7 378 465.3 349 463.5C320 461.7 291 465.3 262 460.8C233 456.3 204 443.7 174.8 441C145.7 438.3 116.3 445.7 87.2 448.3C58 451 29 449 14.5 448L0 447Z" fill="#f0edd5"></path><path d="M0 541L14.5 541C29 541 58 541 87.2 541C116.3 541 145.7 541 174.8 541C204 541 233 541 262 541C291 541 320 541 349 541C378 541 407 541 436.2 541C465.3 541 494.7 541 523.8 541C553 541 582 541 611 541C640 541 669 541 698 541C727 541 756 541 785.2 541C814.3 541 843.7 541 872.8 541C902 541 931 541 945.5 541L960 541L960 501L945.5 500.2C931 499.3 902 497.7 872.8 497.7C843.7 497.7 814.3 499.3 785.2 502C756 504.7 727 508.3 698 511C669 513.7 640 515.3 611 515.3C582 515.3 553 513.7 523.8 510.2C494.7 506.7 465.3 501.3 436.2 501.3C407 501.3 378 506.7 349 510.2C320 513.7 291 515.3 262 513.5C233 511.7 204 506.3 174.8 506.3C145.7 506.3 116.3 511.7 87.2 510.8C58 510 29 503 14.5 499.5L0 496Z" fill="#fff8e4"></path></svg>